<svg viewBox="0 0 615 235" xmlns="http://www.w3.org/2000/svg"><g fill="none" fill-rule="evenodd"><g fill="#1C1C21"><path d="M0 207l6.527-12.465h15.024v-73.036l14.158-4.13v77.166h5.586c9.822 0 14.727-4.947 14.727-14.852V114.4c1.114-.186 2.86-.594 5.226-1.187 2.378-.606 5.302-1.348 8.782-2.214v69.116c0 9.62 4.942 14.419 14.814 14.419H95V207H83.964c-8.806 0-15.693-2.634-20.684-7.902C58.25 204.366 51.24 207 42.236 207H0z"/><path d="M90 207v-12.243h69.677c.086-3.794.05-7.054-.111-9.779-.173-2.712-.358-4.877-.544-6.482-1.061-6.27-3.432-11.11-7.087-14.507-5.025-4.753-11.631-7.141-19.83-7.141-10.607 0-19.262 3.881-25.967 11.657l-9.63-9.107L142.6 111h18.373l-31.98 33.891c2.272-.286 4.445-.435 6.52-.435 10.273 0 18.854 3.135 25.744 9.406 7.001 6.17 11.1 14.382 12.31 24.634.285 2.09.433 11.596.433 28.504H90zM216.037 196.257c9.948 0 14.916-6.983 14.916-20.962 0-14.078-4.968-21.111-14.916-21.111-9.998 0-14.99 7.033-14.99 21.11 0 13.98 4.992 20.963 14.99 20.963zm-27.36 21.26c8.346 3.913 16.232 5.634 23.647 5.15 10.718-.581 16.692-6.463 17.909-17.631-4.272 2.365-9.004 3.554-14.196 3.554-10.333 0-17.971-3.579-22.927-10.736-4.073-5.856-6.11-13.372-6.11-22.56 0-9.335 2.037-16.9 6.11-22.708C198.066 145.53 205.704 142 216.037 142c11.451 0 19.45 4.061 24.02 12.184 3.291 6.141 4.943 14.92 4.943 26.336v4.78c0 1.844-.05 3.85-.149 6.03-.335 4.73-.51 7.85-.51 9.348-.186 10.301-2.806 18.387-7.86 24.23-5.577 6.724-13.625 10.092-24.157 10.092-7.328 0-13.115-1.288-17.388-3.85l-6.26-13.633zM51 97l8.496-12.204h36.571V56.517c0-9.736-5.152-14.598-15.456-14.598-8.47 0-15.17 4.304-20.1 12.936V38.794C67.236 32.927 73.936 30 80.611 30c8.608 0 15.667 2.344 21.19 7.045C107.263 41.597 110 47.748 110 55.5V97H51zM142.408 97c-6.281 0-11.078-1.761-14.415-5.271-3.325-3.51-4.993-8.15-4.993-13.917V5.428L137.022 1v76.378c0 4.75 2.392 7.12 7.177 7.12H158V97h-15.592z"/><path d="M195.458 126c-2.067 0-3.84-.771-5.303-2.301-1.465-1.53-2.19-3.334-2.19-5.424 0-2.09.725-3.894 2.19-5.4 1.464-1.505 3.236-2.25 5.303-2.25 2.068 0 3.864.745 5.403 2.25 1.538 1.506 2.313 3.31 2.313 5.4 0 2.09-.775 3.893-2.313 5.424-1.539 1.53-3.335 2.301-5.403 2.301zm-19.75 0c-2.166 0-3.963-.771-5.378-2.301-1.415-1.53-2.13-3.334-2.13-5.424 0-2.09.715-3.894 2.13-5.4 1.415-1.505 3.212-2.25 5.377-2.25 2.068 0 3.865.745 5.403 2.25 1.538 1.506 2.3 3.31 2.3 5.4 0 2.09-.762 3.893-2.3 5.424-1.538 1.53-3.335 2.301-5.403 2.301zM154 97.35V85.11h9.734c9.857 0 14.78-5.076 14.78-15.24V34.23L192.356 30v40.306c0 9.865 4.886 14.803 14.632 14.803H215v12.242h-8.873c-8.65 0-15.505-2.65-20.55-7.937-4.996 5.287-11.986 7.937-20.982 7.937H154z"/><path d="M243.004 17.378c-2.067 0-3.85-.771-5.376-2.302-1.513-1.53-2.264-3.334-2.264-5.424 0-2.09.75-3.895 2.264-5.4C239.153 2.747 240.938 2 243.004 2c2.067 0 3.864.747 5.402 2.252 1.538 1.505 2.313 3.31 2.313 5.4 0 2.09-.775 3.894-2.313 5.424-1.538 1.53-3.335 2.302-5.402 2.302zM212 98V85.757h9.732c9.855 0 14.789-5.076 14.789-15.24V34.87l13.84-4.23v40.323c0 9.866 4.873 14.793 14.63 14.793H273V98h-8.87c-8.65 0-15.503-2.638-20.547-7.938-4.995 5.3-11.996 7.938-20.978 7.938H212z"/><path d="M292.478 126c-1.96 0-3.713-.771-5.22-2.301-1.508-1.53-2.244-3.334-2.244-5.424 0-2.09.736-3.894 2.243-5.4 1.508-1.505 3.26-2.25 5.221-2.25 2.06 0 3.849.745 5.38 2.25 1.533 1.506 2.305 3.31 2.305 5.4 0 2.09-.772 3.893-2.304 5.424-1.532 1.53-3.322 2.301-5.38 2.301zM270 97.35V85.11h10.553c9.72 0 14.585-5.076 14.585-15.24V34.23L309 30v40.965c0 7.725-2.513 14.045-7.55 18.959-5.074 4.951-11.778 7.427-20.1 7.427H270z"/></g><g fill="#2B6BE9"><path d="M597.609 1.916c9.694-6.46 21.282 4.655 15.643 14.895-17.298 31.496-55.57 78.987-139.704 126.93-160.537 91.47-165.966-94.22-71.353-83.332 85.172 9.817 157.633-33.316 195.414-58.493M534.825 208.285c-8.126 21.386-32.066 32.129-53.434 24-21.396-8.127-32.15-32.043-24.01-53.444 8.126-21.386 32.051-32.129 53.433-24.001 21.382 8.113 32.137 32.044 24.01 53.445"/></g></g></svg>